# xmcd
#
# Track frame offsets:
#	150
#	14828
#	27978
#	41388
#	52976
#	70256
#	85831
#	102444
#	115427
#	131990
#	147152
#
# Disc length: 2147 seconds
#
# Revision: 0
# Processed by: cddbd v1.5.1PL0 Copyright (c) Steve Scherf et al.
# Submitted via: dBpowerAMP V4.0
#
DISCID=9d08610b
DTITLE=the handsome family - In the Air
DYEAR=1900
DGENRE=Country
TTITLE0=Don't Be Scared
TTITLE1=Sad Milkman
TTITLE2=In the Air
TTITLE3=Beautiful Thing
TTITLE4=So Much Wine
TTITLE5=Up Falling Rock Hill
TTITLE6=Poor, Poor Lenore
TTITLE7=When That Helicopter Comes
TTITLE8=Grandmother Waits for You
TTITLE9=Lie Down
TTITLE10=My Beautiful Bride
EXTD=
EXTT0=
EXTT1=
EXTT2=
EXTT3=
EXTT4=
EXTT5=
EXTT6=
EXTT7=
EXTT8=
EXTT9=
EXTT10=
PLAYORDER=
